# xmcd
#
# Track frame offsets: 
#        150
#        13736
#        29077
#        49544
#        64494
#        83580
#        99549
#        116802
#        143452
#        160078
#        175484
#        190671
#        202765
#        219283
#        237642
#        259218
#        269987
#        286349
#        300489
#        311675
#        327354
#
# Disc length: 4609 seconds
#
# Revision: 0
# Processed by: cddbd v1.5.2PL0 Copyright (c) Steve Scherf et al.
# Submitted via: ExactAudioCopyFreeDBPlugin 1.0
#
DISCID=3511ff15
DTITLE=Cox, Ida - Ida Cox with The Coleman Hawkins Quintet - Blues for
DTITLE=Rampart Street
DYEAR=1961
DGENRE=
TTITLE0=Blues for Rampart Street
TTITLE1=St. Louis Blues
TTITLE2=Fogyism
TTITLE3=Wild Women Don't Have the Blues
TTITLE4=Hard Time Blues
TTITLE5=Cherry Pickin' Blues
TTITLE6=Hard, Oh Lord
TTITLE7=Lawdy, Lawdy Blues
TTITLE8=Death Letter Blues
TTITLE9=Mama Goes Where Papa Goes
TTITLE10=You Can Depend on Me
TTITLE11=Trouble in MInd
TTITLE12=Among my Souvenirs
TTITLE13=Ain't Misbehavin'
TTITLE14=Star Dust
TTITLE15=Bill Bailey
TTITLE16=When I Grow Too Old to Dream
TTITLE17=A Good Man Is Hard to Find
TTITLE18='Tain't Nobody's Biz-Ness If I Do
TTITLE19=I Got It Bad and That Ain't Good
TTITLE20=When The Saints Go Marching In
EXTD=
EXTT0=
EXTT1=
EXTT2=
EXTT3=
EXTT4=
EXTT5=
EXTT6=
EXTT7=
EXTT8=
EXTT9=
EXTT10=
EXTT11=
EXTT12=
EXTT13=
EXTT14=
EXTT15=
EXTT16=
EXTT17=
EXTT18=
EXTT19=
EXTT20=
PLAYORDER=
